# xmcd CD database file
#
# Track frame offsets:
#	150
#	53934
#	106102
#	148169
#	189839
#	224667
#	274465
#
# Disc length: 4183 seconds
#
# Revision: 0
# Processed by: cddbd v1.5.2PL0 Copyright (c) Steve Scherf et al.
# Submitted via: CDex 1.70beta2
#
DISCID=6e105507
DTITLE=Jon Regen Trio - Live At The Blue Note
DYEAR=2000
DGENRE=Jazz
TTITLE0=From Left To Right
TTITLE1=You Don'T Know What Love Is
TTITLE2=For Evan'S Sake
TTITLE3=Young and Foolish
TTITLE4=Humbug
TTITLE5=Not Twenty Five
TTITLE6=Un Pollo Loco
EXTD=YEAR: 2000
EXTT0=
EXTT1=
EXTT2=
EXTT3=
EXTT4=
EXTT5=
EXTT6=
PLAYORDER=
